Coordinates
version=1
nRows=20
nColumns=38
inDegrees=no

Units are S.I. units (second, meters, Newtons, ...)
If the header above contains a line with 'inDegrees', this indicates whether rotational values are in degrees (yes) or radians (no).

endheader
time	pelvis_tilt	pelvis_list	pelvis_rotation	pelvis_tx	pelvis_ty	pelvis_tz	hip_flexion_r	hip_adduction_r	hip_rotation_r	knee_angle_r	ankle_angle_r	subtalar_angle_r	mtp_angle_r	hip_flexion_l	hip_adduction_l	hip_rotation_l	knee_angle_l	ankle_angle_l	subtalar_angle_l	mtp_angle_l	lumbar_extension	lumbar_bending	lumbar_rotation	arm_flex_r	arm_add_r	arm_rot_r	elbow_flex_r	pro_sup_r	wrist_flex_r	wrist_dev_r	arm_flex_l	arm_add_l	arm_rot_l	elbow_flex_l	pro_sup_l	wrist_flex_l	wrist_dev_l
0.62	1.09114	1.48038	0.354898	0.509179	0.110554	0.936746	-0.0864125	0.144036	0.0743715	0.20362	0.144897	0	0	0.605937	-0.239395	-0.327755	0.467939	0.113413	0	0	-0.0856615	0.094911	0.0223039	-0.219117	-0.0989161	-0.333374	0.509224	0.822695	0	0	-0.199297	-0.317681	0.467169	0.644688	0.781237	0	0
0.63	1.00343	1.48229	0.443651	0.507757	0.119782	0.935255	-0.0833163	0.135718	0.0689553	0.216713	0.15686	0	0	0.600105	-0.221629	-0.330902	0.416412	0.12131	0	0	-0.078073	0.0903077	0.0203029	-0.220014	-0.0989751	-0.329875	0.511012	0.81947	0	0	-0.200048	-0.314083	0.470281	0.638065	0.786065	0	0
0.64	0.908206	1.48357	0.539534	0.506302	0.129116	0.93374	-0.078939	0.1269	0.0633894	0.231916	0.168652	0	0	0.593172	-0.202646	-0.32817	0.364096	0.126633	0	0	-0.0701236	0.0853412	0.0187164	-0.221551	-0.0989449	-0.326416	0.513546	0.815792	0	0	-0.200848	-0.310107	0.472391	0.631502	0.790457	0	0
0.65	0.814552	1.48422	0.633156	0.504861	0.138594	0.932276	-0.0743317	0.118	0.0580189	0.248778	0.179928	0	0	0.584551	-0.183688	-0.32093	0.31229	0.128183	0	0	-0.0624917	0.0803194	0.0183504	-0.224095	-0.098877	-0.323188	0.516925	0.811746	0	0	-0.201468	-0.305958	0.474136	0.62486	0.79464	0	0
0.66	0.729664	1.4841	0.717132	0.503474	0.148264	0.93088	-0.0702035	0.109598	0.053496	0.266464	0.190221	0	0	0.575567	-0.166832	-0.313223	0.265825	0.127096	0	0	-0.0554131	0.0758469	0.019401	-0.227843	-0.098903	-0.320419	0.521212	0.807188	0	0	-0.202379	-0.301817	0.475801	0.618207	0.79856	0	0
0.67	0.662917	1.48313	0.782344	0.502192	0.158141	0.929544	-0.0671953	0.102676	0.0506001	0.284202	0.198834	0	0	0.569005	-0.154263	-0.310319	0.232464	0.127114	0	0	-0.0491154	0.0726631	0.0213709	-0.23255	-0.0990241	-0.318119	0.526324	0.801511	0	0	-0.203532	-0.297496	0.476653	0.61185	0.802194	0	0
0.68	0.624813	1.482	0.818984	0.500987	0.168249	0.928322	-0.0669417	0.0977799	0.0497676	0.300649	0.204807	0	0	0.566355	-0.146735	-0.314369	0.217747	0.130694	0	0	-0.0445633	0.0711408	0.023353	-0.237855	-0.0992532	-0.315938	0.531903	0.794053	0	0	-0.205177	-0.293158	0.476219	0.606621	0.806345	0	0
0.69	0.608043	1.48166	0.834272	0.499853	0.178581	0.927262	-0.0688775	0.0936243	0.0495777	0.317148	0.209433	0	0	0.567343	-0.143155	-0.323516	0.221126	0.134523	0	0	-0.0422186	0.0703105	0.026539	-0.243543	-0.0979341	-0.322385	0.536866	0.802019	0	0	-0.206178	-0.290007	0.47953	0.603093	0.801464	0	0
0.7	0.603416	1.48218	0.837053	0.498846	0.189147	0.926339	-0.0717904	0.0895551	0.0503338	0.334983	0.213572	0	0	0.571929	-0.143034	-0.33596	0.240779	0.135643	0	0	-0.0411496	0.0694446	0.0307174	-0.250763	-0.0962404	-0.329155	0.5431	0.808732	0	0	-0.207108	-0.287312	0.48287	0.599932	0.796567	0	0
0.71	0.610543	1.48315	0.827718	0.497992	0.199974	0.925538	-0.0756003	0.0862088	0.0533723	0.353521	0.216292	0	0	0.578964	-0.146182	-0.349301	0.273028	0.133922	0	0	-0.0407185	0.0687308	0.0353604	-0.259049	-0.094251	-0.335687	0.549541	0.81482	0	0	-0.208718	-0.285305	0.486168	0.597913	0.791535	0	0
0.72	0.623044	1.48447	0.812419	0.497272	0.211078	0.924855	-0.0794672	0.0830776	0.0579356	0.373414	0.217273	0	0	0.585743	-0.150777	-0.360675	0.310694	0.130481	0	0	-0.0401941	0.0677956	0.0404586	-0.268129	-0.0920958	-0.341711	0.555425	0.820412	0	0	-0.211042	-0.283816	0.489834	0.596294	0.786195	0	0
0.73	0.634274	1.48592	0.797512	0.496664	0.222463	0.924259	-0.0825536	0.0796113	0.063313	0.395042	0.216712	0	0	0.590618	-0.155459	-0.368849	0.348712	0.128187	0	0	-0.0389041	0.0664187	0.0464403	-0.277721	-0.0897633	-0.347485	0.559967	0.825419	0	0	-0.21491	-0.283088	0.492684	0.596632	0.780913	0	0
0.74	0.642174	1.48705	0.78492	0.496148	0.23416	0.923678	-0.0840354	0.0758559	0.06893	0.419001	0.214615	0	0	0.592967	-0.159818	-0.373034	0.383867	0.130353	0	0	-0.0364515	0.0649267	0.0537075	-0.28846	-0.0873117	-0.3537	0.564217	0.82984	0	0	-0.219805	-0.28278	0.495218	0.598274	0.775664	0	0
0.75	0.650178	1.48791	0.771178	0.495691	0.246154	0.92311	-0.083839	0.0719279	0.0744268	0.445732	0.210901	0	0	0.592194	-0.163789	-0.374587	0.414385	0.138398	0	0	-0.0329011	0.0636143	0.0614583	-0.299853	-0.0850975	-0.359913	0.567981	0.834408	0	0	-0.226149	-0.282627	0.496647	0.600979	0.770112	0	0
0.76	0.655064	1.4884	0.760225	0.495221	0.258387	0.922516	-0.0815293	0.0677748	0.0794871	0.475285	0.205355	0	0	0.589038	-0.166801	-0.374201	0.439411	0.149314	0	0	-0.0279341	0.0624024	0.068498	-0.311325	-0.0831326	-0.366142	0.571086	0.839136	0	0	-0.234328	-0.282627	0.496476	0.604779	0.764069	0	0
0.77	0.643439	1.48807	0.764328	0.494818	0.270699	0.921767	-0.0745305	0.062878	0.0849295	0.50981	0.197981	0	0	0.585579	-0.169929	-0.376478	0.459907	0.156717	0	0	-0.0206945	0.06074	0.0762177	-0.322472	-0.0805963	-0.376421	0.573593	0.851399	0	0	-0.244086	-0.284129	0.499108	0.612526	0.74308	0	0
0.78	0.606451	1.48839	0.794623	0.494235	0.2831	0.920972	-0.0630968	0.0549332	0.0863879	0.549499	0.1882	0	0	0.580218	-0.169091	-0.378776	0.4709	0.149476	0	0	-0.0116729	0.0566378	0.0817601	-0.330424	-0.076101	-0.397355	0.5706	0.889524	0	0	-0.255187	-0.287054	0.504208	0.621773	0.716668	0	0
0.79	0.562746	1.48956	0.834259	0.493298	0.29552	0.920292	-0.0494771	0.0452737	0.0838963	0.592402	0.174141	0	0	0.574067	-0.165807	-0.381676	0.477832	0.127789	0	0	-0.00267851	0.0511553	0.0825655	-0.338516	-0.0742547	-0.403103	0.569474	0.895505	0	0	-0.26744	-0.288007	0.500308	0.627606	0.713724	0	0
0.8	0.505578	1.49233	0.890132	0.492022	0.307721	0.919899	-0.0332542	0.0334708	0.079008	0.639593	0.155127	0	0	0.568671	-0.160551	-0.384918	0.486557	0.102136	0	0	0.00494696	0.0431434	0.0790654	-0.345307	-0.0739704	-0.397935	0.568456	0.879622	0	0	-0.279405	-0.28803	0.490677	0.631061	0.725743	0	0
0.81	0.404894	1.49604	0.991942	0.490578	0.319478	0.919735	-0.0113899	0.0185329	0.0724514	0.693042	0.130331	0	0	0.567182	-0.153159	-0.388416	0.502677	0.0862964	0	0	0.0122341	0.0308084	0.0728389	-0.347277	-0.0706853	-0.404056	0.560789	0.890113	0	0	-0.289919	-0.29166	0.488709	0.637976	0.71969	0	0
